<?xml version="1.0" encoding="utf-8"?>
<!-- Generator: Adobe Illustrator 24.2.1, SVG Export Plug-In . SVG Version: 6.00 Build 0)  -->
<svg version="1.1" id="Layer_1" xmlns="http://www.w3.org/2000/svg" xmlns:xlink="http://www.w3.org/1999/xlink" x="0px" y="0px"
	 viewBox="0 0 1080 807.31" style="enable-background:new 0 0 1080 807.31;" xml:space="preserve">
<style type="text/css">
	.st0{fill:none;stroke:#09A3F9;stroke-width:5;stroke-miterlimit:10;}
	.st1{fill:url(#SVGID_1_);}
	.st2{fill:url(#SVGID_2_);}
	.st3{fill:#231F20;}
	.st4{fill:#0139A5;}
	.st5{fill:#010123;}
	.st6{fill:url(#SVGID_3_);}
	.st7{fill:#002D85;}
	.st8{fill:#000125;}
	.st9{fill:none;stroke:#0048C2;stroke-width:4;stroke-miterlimit:10;}
	.st10{fill:#003AB5;}
	.st11{fill:#7B7B7D;}
	.st12{font-family:'FranklinGothic-BookItalic';}
	.st13{font-size:62.7748px;}
	.st14{letter-spacing:3;}
	.st15{fill:#003292;}
	.st16{fill:#000835;}
	.st17{fill:url(#SVGID_4_);}
	.st18{fill:url(#SVGID_5_);}
	.st19{fill:url(#SVGID_6_);}
	.st20{fill:url(#SVGID_7_);}
	.st21{fill:url(#SVGID_8_);}
	.st22{fill:url(#SVGID_9_);}
	.st23{fill:url(#SVGID_10_);}
	.st24{fill:#055CEE;}
	.st25{fill:#00174F;}
	.st26{fill:url(#SVGID_11_);}
	.st27{fill:url(#SVGID_12_);}
	.st28{fill:url(#SVGID_13_);}
	.st29{fill:#0186FD;}
	.st30{fill:url(#SVGID_14_);}
	.st31{fill:#001047;}
	.st32{fill:#003395;}
	.st33{fill:url(#SVGID_15_);}
	.st34{fill:#05B6FE;}
	.st35{fill:#FFFFFF;}
	.st36{fill:#09A3F9;}
	.st37{fill:#27AAE1;}
	.st38{clip-path:url(#SVGID_17_);}
	.st39{fill:url(#SVGID_18_);}
	.st40{fill:url(#SVGID_19_);}
	.st41{fill:url(#SVGID_20_);}
	.st42{fill:url(#SVGID_21_);}
	.st43{fill:url(#SVGID_22_);}
	.st44{fill:url(#SVGID_23_);}
	.st45{fill:url(#SVGID_24_);}
	.st46{fill:url(#SVGID_25_);}
	.st47{fill:url(#SVGID_26_);}
	.st48{fill:url(#SVGID_27_);}
	.st49{fill:url(#SVGID_28_);}
	.st50{fill:url(#SVGID_29_);}
	.st51{fill:url(#SVGID_30_);}
	.st52{fill:url(#SVGID_31_);}
	.st53{fill:url(#SVGID_32_);}
	.st54{fill:url(#SVGID_33_);}
	.st55{fill:url(#SVGID_34_);}
	.st56{fill:url(#SVGID_35_);}
	.st57{fill:url(#SVGID_36_);}
	.st58{fill:url(#SVGID_37_);}
	.st59{fill:url(#SVGID_38_);}
	.st60{fill:url(#SVGID_39_);}
	.st61{fill:url(#SVGID_40_);}
	.st62{fill:url(#SVGID_41_);}
	.st63{fill:url(#SVGID_42_);}
	.st64{fill:url(#SVGID_43_);}
	.st65{fill:url(#SVGID_44_);}
	.st66{fill:#01B3FE;}
	.st67{fill:url(#SVGID_45_);}
</style>
<line class="st0" x1="611.05" y1="163.65" x2="611.05" y2="351.21"/>
<radialGradient id="SVGID_1_" cx="780.8566" cy="214.2631" r="182.9376" gradientTransform="matrix(1 0 0 1.4018 0 -86.0946)" gradientUnits="userSpaceOnUse">
	<stop  offset="0" style="stop-color:#0090F8"/>
	<stop  offset="0.7905" style="stop-color:#00124F"/>
</radialGradient>
<path class="st1" d="M639.35,100.35l5.17-13.75l30.97-23.39l51.87-19.84h66.61l60.38,24.09l40.25,38.27c0,0,20.69,43.09,22.11,50.46
	c1.42,7.37,11.06,49.89,1.42,75.97c-9.64,26.08-18.99,41.13-30.9,55.86s-79.37,55.02-86.17,56.13c-6.8,1.11-41.95,17.9-41.95,17.9
	l-49.04,23.1l10.32-146.99c0.91-12.97-0.56-25.99-4.34-38.42v0c-9.58-31.54-28.28-59.54-53.73-80.49L639.35,100.35z"/>
<linearGradient id="SVGID_2_" gradientUnits="userSpaceOnUse" x1="189.8189" y1="412.5194" x2="634.1024" y2="412.5194">
	<stop  offset="0" style="stop-color:#0061E7"/>
	<stop  offset="1" style="stop-color:#388AFA"/>
</linearGradient>
<path class="st2" d="M202.67,424.35c0,0,40.25,11.2,42.24,15.66s7.37,17.22,10.49,22.18c3.12,4.96,13.32,21.97,13.32,21.97
	l2.04,2.11l20.94-2.58l24.07-52.11l44.88-36.99l45.83-22.96l40.25-8.22l33.17,2.55c0,0,21.26,20.98,24.09,24.38
	c2.83,3.4,11.34,18.56,12.76,20.62c1.42,2.06,6.39,7.84,6.39,7.84l92.12-52.27l18.85-9.05l-1.13-1.44l-37.61-8.69l-65.92-8.57
	l-123.05,7.06L282.42,370.2l-69.35,23.06l-23.24,11.34L202.67,424.35z"/>
<rect x="302.02" y="381.64" class="st3" width="2.27" height="60.52"/>
<rect x="267.87" y="399.87" class="st3" width="2.27" height="70.49"/>
<path class="st4" d="M244.06,495.43l3.4-13.96l-17.29-23.53l-18.71-11.62l-25.75-6.31l-10.25,5.31l-3.12,3.35l0.3,0.21
	c1.15,0.79,2.43,1.39,3.78,1.75c4.62,1.25,16.32,4.94,22.71,11.55c0,0,12.76,13.32,17.86,26.22c0,0,2.83,11.55,2.98,12.26
	L244.06,495.43z"/>
<rect x="344.21" y="367.94" class="st3" width="0.85" height="31.42"/>
<path class="st5" d="M260.31,492.24l-0.66-22.82l-16.58-21.69l-19.13-13.18l-18.71-2.98h-5.81l-14.74,9.07l-1.43,2.57
	c0,0,11.78-1.43,21.42,2.68c0,0,18.57,7.23,27.64,22.82c0,0,9.41,18.32,11.76,27.92L260.31,492.24z"/>
<linearGradient id="SVGID_3_" gradientUnits="userSpaceOnUse" x1="240.0866" y1="420.4724" x2="240.0866" y2="492.2835">
	<stop  offset="0" style="stop-color:#001661"/>
	<stop  offset="1" style="stop-color:#2BC2FD"/>
</linearGradient>
<path class="st6" d="M260.31,492.28l18.9-3.87c0,0-2.96-30.99-31.71-56.72c-4.17-3.73-9.13-6.49-14.49-8.12
	c-3.8-1.15-8.39-2.4-12.38-3.1l-19.65,8.13v4.39c0,0,23,2.48,37.38,17.99c1.07,1.15,2.17,2.28,3.34,3.33
	C245.52,457.79,255.32,472.16,260.31,492.28z"/>
<polygon class="st7" points="95.9,516.47 151.27,505.7 148.62,454.44 91.74,471.69 "/>
<path class="st8" d="M14.45,485.46c0,0,77.67-13.04,91.28-16.43s40.63-9.88,51.97-12.96c0,0,51.78-24.06,86.17-44.28
	c0,0,63.5-26.08,101.48-35.15c0,0,48.57-16.63,112.44-24.85c0,0,65.2-5.57,93.17-2.36c0,0,59.53,3.97,75.59,10.68l4.8-3.2
	l-61.31-12.35l-96.61-1.95l-92.36,13.06l-121.7,33.07c0,0-106.21,42.52-108.09,41.95s-90.14,32.5-90.14,32.5L14.45,485.46z"/>
<line class="st9" x1="820.81" y1="323.15" x2="820.81" y2="256.82"/>
<line class="st9" x1="874.48" y1="289.37" x2="874.48" y2="201.46"/>
<path class="st10" d="M14.45,485.46c0,0,99.78-71.6,260.22-119.79c0,0,74.83-24.94,207.5-30.61c0,0,110.55,2.55,151.94,19.84
	l-5.95,3.97c0,0-43.09-15.02-132.09-14.17c0,0-80.5,0.57-187.94,35.72c0,0-70.3,23.24-138.05,54.99S14.45,485.46,14.45,485.46z"/>
<text transform="matrix(1 0 0 1 192.0884 767.8467)" class="st11 st12 st13 st14">Where AI Meets Reality</text>
<path class="st15" d="M775.27,425.57l114.33-52.35l13.61-3.78c0,0-9.17,45.01-12.01,71.84C891.2,441.29,832.72,430.11,775.27,425.57
	z"/>
<path class="st16" d="M664.65,424.2c0,0,38.62,5.15,79.49-3.92c28.03-6.22,83.85-31.94,83.85-31.94l43.37-20.98l37.42-15.59h15.02
	l1.7,4.95c0,0-18.43,3.27-23.24,15.46c0,0-29.2,9.92-55.84,27.21c0,0-45.92,20.41-68.03,26.36l-40.7,12.28l-78.92-3.14l-56.83-0.57
	L664.65,424.2z"/>
<linearGradient id="SVGID_4_" gradientUnits="userSpaceOnUse" x1="137.5804" y1="692.5601" x2="140.4714" y2="520.6631">
	<stop  offset="0" style="stop-color:#B2B3B5"/>
	<stop  offset="1" style="stop-color:#D7D8D8"/>
</linearGradient>
<path class="st17" d="M218.45,572.79l6.33-27.87l-86.17-1.8c0,0-58.2-3.02-67.65,40.82c0,0-10.72,30.76,32.36,40.68l62.22,15.45
	c0,0,12.9,2.55,12.19,13.32c0,0,0.71,9.07-13.32,12.47H58.24l-5.39,27.07l108.85,1.13c0,0,40.39-1.56,51.17-37.13
	c0,0,7.56-19.89-6.8-35.39c0,0-19.09-12.09-45.17-15.87c0,0-34.96-7.75-38.17-9.07c0,0-15.87-0.76-14.93-14.17
	c0,0,1.32-10.77,18.52-11.53L218.45,572.79z"/>
<linearGradient id="SVGID_5_" gradientUnits="userSpaceOnUse" x1="286.114" y1="687.3954" x2="292.3111" y2="562.2802">
	<stop  offset="0" style="stop-color:#B2B3B5"/>
	<stop  offset="1" style="stop-color:#D1D1D2"/>
</linearGradient>
<path class="st18" d="M320.21,584.5c0,0-16.63-1.89-32.5-1.13s-43.84,7.56-56.69,38.93c0,0-18.33,50.65,16.06,66.52
	c0,0,27.97,15.31,88.82-1.89l4.91-24.19c0,0-24.57,7.94-44.6,7.56s-26.46,0-35.72-11.91c0,0-1.89-7.37-1.7-10.96l88.06-1.13
	c0,0,3.78-15.97,4.54-27.73C351.39,618.57,352.91,588.47,320.21,584.5z M261.82,627.97c2.34-11.21,11.91-17.04,18.29-19.74
	c3.12-1.32,6.46-1.99,9.84-1.99h12.88c15.87,0.76,16.63,12.33,16.63,12.33l0.76,9.4H261.82z"/>
<linearGradient id="SVGID_6_" gradientUnits="userSpaceOnUse" x1="398.3857" y1="685.929" x2="404.3654" y2="598.6375">
	<stop  offset="0" style="stop-color:#B2B3B5"/>
	<stop  offset="1" style="stop-color:#CBCCCD"/>
</linearGradient>
<path class="st19" d="M388.62,555.59h33.07l-5.86,30.05h32.31l-5.48,24.76h-32.31l-7.56,45.73c0,0-2.27,11.72,10.2,12.66
	c0,0,14.74,0,21.35-2.46l-4.35,24.94c0,0-0.76,1.78-33.64,3.82c0,0-25.51-0.04-26.46-20.07c0,0-0.57-12.85,1.89-25.51
	c2.46-12.66,7.56-39.12,7.56-39.12l-18.71,0.19l3.4-24.94l19.28,0.57L388.62,555.59z"/>
<linearGradient id="SVGID_7_" gradientUnits="userSpaceOnUse" x1="504.855" y1="685.2085" x2="523.2192" y2="558.3033">
	<stop  offset="0" style="stop-color:#B2B3B5"/>
	<stop  offset="1" style="stop-color:#D1D2D3"/>
</linearGradient>
<path class="st20" d="M468.84,541.98h33.45l-9.07,54.43c0,0,9.65-13.68,46.78-13.22c37.13,0.46,33.44,31.36,33.44,31.36l-11.62,78.8
	H531.2l8.8-63.21c0,0,7.36-22.68-22.97-21.26c0,0-14.74,0.57-27.78,11.06l-11.91,73.42h-32.03L468.84,541.98z"/>
<linearGradient id="SVGID_8_" gradientUnits="userSpaceOnUse" x1="642.2549" y1="683.4799" x2="652.7413" y2="557.7748">
	<stop  offset="0" style="stop-color:#B2B3B5"/>
	<stop  offset="1" style="stop-color:#D3D3D4"/>
</linearGradient>
<path class="st21" d="M592.72,585.07h34.58l-10.2,66.61c0,0-7.09,17.86,22.39,16.72c0,0,15.87-3.12,26.36-12.19l11.06-71.15h33.17
	l-17.01,108.28h-30.61L665,677.2c0,0-11.91,16.44-46.49,18.14c0,0-33.45-0.85-34.58-27.21L592.72,585.07z"/>
<linearGradient id="SVGID_9_" gradientUnits="userSpaceOnUse" x1="810.0184" y1="695.9542" x2="819.9777" y2="496.0762">
	<stop  offset="1.101488e-03" style="stop-color:#0031AC"/>
	<stop  offset="1" style="stop-color:#B1F4FE"/>
</linearGradient>
<path class="st22" d="M856.91,544.25l-53.86-1.7l-92.98,151.09h47.06l16.16-30.33l81.07-0.28l9.64,30.61h46.2L856.91,544.25z
	 M790.86,635.81L825.44,576l21.54,59.81H790.86z"/>
<linearGradient id="SVGID_10_" gradientUnits="userSpaceOnUse" x1="956.8179" y1="650.2977" x2="964.6423" y2="584.7155">
	<stop  offset="0.2402" style="stop-color:#0031AC"/>
	<stop  offset="1" style="stop-color:#67A3DB"/>
</linearGradient>
<polygon class="st23" points="927.77,691.37 972.56,693.64 993.82,542.55 948.75,541.13 "/>
<path class="st24" d="M147.11,513.64c0,0,125.86-9.73,142.2-11.81c0,0,145.23-16.16,190.2-17.29c0,0,251.53-14.55,406.87,31.94
	c0,0-95.81-33.45-192.76-40.25c0,0-106.02-6.8-216,2.27c0,0-161.2,15.12-176.88,17.76L147.11,513.64z"/>
<path class="st25" d="M147.11,513.64c0,0,221.67-26.08,236.03-28.35c14.36-2.27,149.29-18.9,222.24-17.76s252.09,1.32,398.36,48.94
	c0,0-93.54-35.72-199.56-45.92c0,0-139.46-18.71-199.56-13.61s-100.91,2.27-223.94,21.54L147.11,513.64z"/>
<linearGradient id="SVGID_11_" gradientUnits="userSpaceOnUse" x1="402.5118" y1="483.1827" x2="1054.1969" y2="483.1827">
	<stop  offset="0" style="stop-color:#0079FA"/>
	<stop  offset="1" style="stop-color:#44E4FE"/>
</linearGradient>
<path class="st26" d="M402.51,474.38c0,0,66.33-18,125.57-30.19c0,0,131.53-32.09,308.98,11.87c0,0,175.18,53.61,217.13,77.42
	c0,0-117.23-39.66-154.35-47.21c-37.11-7.55-210.25-34.85-314.03-27.92C585.82,458.35,500.68,458.78,402.51,474.38z"/>
<linearGradient id="SVGID_12_" gradientUnits="userSpaceOnUse" x1="900.5591" y1="750.8268" x2="1005.5827" y2="750.8268">
	<stop  offset="0.4916" style="stop-color:#2863D0"/>
	<stop  offset="1" style="stop-color:#FFFFFF"/>
</linearGradient>
<rect x="900.56" y="749.76" class="st27" width="105.02" height="2.13"/>
<linearGradient id="SVGID_13_" gradientUnits="userSpaceOnUse" x1="65.1417" y1="750.8268" x2="170.1654" y2="750.8268" gradientTransform="matrix(-1 0 0 1 235.3071 0)">
	<stop  offset="0.4916" style="stop-color:#2863D0"/>
	<stop  offset="1" style="stop-color:#FFFFFF"/>
</linearGradient>
<polygon class="st28" points="65.14,751.89 170.17,751.89 170.17,749.76 65.14,749.76 "/>
<rect x="571.46" y="204.24" class="st29" width="17.01" height="21.12"/>
<rect x="536.45" y="242.08" class="st29" width="17.01" height="20.41"/>
<rect x="571.46" y="261.35" class="st29" width="17.01" height="20.41"/>
<rect x="514.62" y="288.61" class="st29" width="17.01" height="20.41"/>
<rect x="573.16" y="307.61" class="st29" width="15.31" height="18.24"/>
<rect x="628.15" y="280.35" class="st29" width="15.31" height="18.24"/>
<linearGradient id="SVGID_14_" gradientUnits="userSpaceOnUse" x1="15.5827" y1="410.9475" x2="632.9685" y2="410.9475">
	<stop  offset="0" style="stop-color:#0079FA;stop-opacity:0.5"/>
	<stop  offset="1" style="stop-color:#44E4FE"/>
</linearGradient>
<path class="st30" d="M15.58,484.16c0,0,103.18-57.11,115.09-62.29c11.91-5.18,98.65-44.3,176.5-62.44c0,0,74.83-23.81,190.49-21.54
	c0,0,73.13,0.19,106.2,10.2l29.1,7.94l-2.73,1.44c0,0-26.75-8.06-53.77-12.21c0,0-42.9-5.48-93.17-3.78c0,0-84.85,9.26-125.67,17.2
	c0,0-58.96,11.15-136.06,41.2S90.8,458.08,90.8,458.08s-28.16,11.53-31.37,12.66C56.21,471.87,15.58,484.16,15.58,484.16z"/>
<rect x="536.31" y="345.48" class="st3" width="2.27" height="64.77"/>
<rect x="567.02" y="347.81" class="st3" width="2.27" height="44.29"/>
<rect x="491.8" y="342.59" class="st3" width="0.85" height="31.42"/>
<rect x="512.5" y="345.4" class="st3" width="0.85" height="44.31"/>
<rect x="590.18" y="351.21" class="st3" width="0.85" height="27.02"/>
<rect x="604.99" y="353.8" class="st3" width="0.85" height="16.91"/>
<path class="st31" d="M515.4,422.93c0,0-1.4-29.57-33.76-45.21c-32.36-15.64-52.58-7.14-60.14-6.19s-9.45,4.31-9.45,4.31
	l-16.39,7.35l29.62-3.72l32.88,15.45l20.6,23.67l13.92,16.35L515.4,422.93z"/>
<path class="st32" d="M470.69,446.78l24.02-12.94c0,0-9.85-47.48-48.26-56.27c0,0-15.82-6.49-50.78,5.61c0,0,36.27,0.05,50.17,15.62
	c1.6,1.8,3.31,3.5,5.07,5.14C455.6,408.34,464.93,419.99,470.69,446.78z"/>
<linearGradient id="SVGID_15_" gradientUnits="userSpaceOnUse" x1="278.0709" y1="423.1463" x2="527.4724" y2="423.1463">
	<stop  offset="0" style="stop-color:#22B3FD"/>
	<stop  offset="1" style="stop-color:#76E9FE"/>
</linearGradient>
<path class="st33" d="M278.07,488.82c0,0,11.91-58.8,76.82-97.92c0,0,15.87-15.02,77.1-30.9c0,0,57.83-14.46,81.07,25.8
	c0,0,11.06,14.08,14.08,26.74l0.33,1.18l-12.38,8.79c0,0-5.91-26.41-20.74-36.52c0,0-14.74-14.5-41.1-14.5
	c0,0-24.57-1.42-49.63,8.36c0,0-36.26,14.31-53.13,29.06c0,0-24.94,18.99-35.15,36.43c-10.2,17.43-13.61,27.78-17.29,39.54
	L278.07,488.82z"/>
<polyline class="st0" points="667.74,335.62 667.74,283.46 635.8,249.83 635.8,109.98 "/>
<polyline class="st0" points="663.58,138.33 665.47,233.2 694.2,262.49 694.2,321.26 470.69,446.78 "/>
<line class="st0" x1="650.1" y1="346.89" x2="651.77" y2="393.66"/>
<line class="st0" x1="698.45" y1="377.87" x2="698.45" y2="341.01"/>
<line class="st0" x1="712.62" y1="372.9" x2="710.07" y2="194.74"/>
<line class="st0" x1="744.37" y1="360.19" x2="742.1" y2="218.55"/>
<polygon class="st34" points="602.21,148.68 617.38,148.68 617.38,166.82 612.18,170.65 602.21,165.69 "/>
<g>
	<circle class="st34" cx="664.81" cy="132.64" r="11.69"/>
	<circle class="st35" cx="664.81" cy="132.64" r="8.72"/>
</g>
<g>
	<circle class="st34" cx="664.81" cy="212.95" r="11.69"/>
	<circle class="st35" cx="664.81" cy="212.95" r="8.72"/>
</g>
<g>
	<circle class="st34" cx="651.98" cy="385.16" r="7.63"/>
	<circle class="st35" cx="651.98" cy="385.16" r="5.69"/>
</g>
<g>
	<circle class="st34" cx="698.45" cy="344.15" r="7.63"/>
	<circle class="st35" cx="698.45" cy="344.15" r="5.69"/>
</g>
<g>
	<circle class="st34" cx="741.61" cy="281.83" r="8.29"/>
	<circle class="st35" cx="741.61" cy="281.83" r="6.18"/>
</g>
<path class="st0" d="M664.81,141.35l5.57-20.41c0,0,20.41-38.55,37.04-51.02c0,0,17.81-20.03,36.09-24.43l11.62-2.13l11.34,1.56
	l3.69,6.8c0,0,42.8,12.05,65.2,33.59c22.39,21.54,42.52,51.87,42.52,51.87s5.95,32.31-3.97,64.06c0,0-21.95,59.53-101.68,70.3"/>
<g>
	<circle class="st34" cx="635.8" cy="102.69" r="11.69"/>
	<circle class="st35" cx="635.8" cy="102.69" r="8.72"/>
</g>
<path class="st0" d="M655.21,77.49c0,0,21.13-11.73,53.44-10.88"/>
<g>
	<polygon class="st36" points="710.31,66.91 766.39,153.07 707,69.15 	"/>
</g>
<g>
	<polygon class="st36" points="766.35,51.26 771.3,152.69 762.36,51.54 	"/>
</g>
<g>
	<polygon class="st36" points="836.27,87.68 776.97,156.76 833.18,85.14 	"/>
</g>
<g>
	<polygon class="st36" points="877.79,140.35 776.97,156.76 877.07,136.41 	"/>
</g>
<g>
	<polygon class="st36" points="870.65,204.24 774.56,161.43 872.21,200.55 	"/>
</g>
<g>
	<polygon class="st36" points="807.75,223.38 774.56,165.49 811.16,221.29 	"/>
</g>
<g>
	<polygon class="st36" points="739.86,214.86 768.81,167.1 743.35,216.81 	"/>
</g>
<g>
	<polygon class="st36" points="665.37,128.88 763.36,159.59 664.25,132.71 	"/>
</g>
<g>
	<polygon class="st36" points="711.11,186.03 763.74,163.65 712.81,189.65 	"/>
</g>
<g>
	<circle class="st34" cx="810.87" cy="226.71" r="7.91"/>
	<circle class="st35" cx="810.87" cy="226.71" r="7.3"/>
</g>
<g>
	<polygon class="st36" points="771.28,351.8 771.42,166.28 775.28,351.76 	"/>
</g>
<g>
	<circle class="st34" cx="770.9" cy="266.31" r="9.49"/>
	<circle class="st35" cx="770.9" cy="266.31" r="8.76"/>
</g>
<g>
	<circle class="st34" cx="710.07" cy="187.35" r="11.69"/>
	<circle class="st35" cx="710.07" cy="187.35" r="8.72"/>
</g>
<g>
	<circle class="st34" cx="741.61" cy="215.83" r="8.72"/>
	<circle class="st35" cx="741.61" cy="215.83" r="6.5"/>
</g>
<g>
	<circle class="st34" cx="708.65" cy="68.03" r="9.57"/>
	<circle class="st35" cx="708.65" cy="68.03" r="7.13"/>
</g>
<g>
	<circle class="st34" cx="834.72" cy="86.41" r="8.22"/>
	<circle class="st35" cx="834.72" cy="86.41" r="7.58"/>
</g>
<g>
	<circle class="st34" cx="877.43" cy="138.38" r="8.22"/>
	<circle class="st35" cx="877.43" cy="138.38" r="7.58"/>
</g>
<g>
	<circle class="st34" cx="871.43" cy="201.12" r="8.22"/>
	<circle class="st35" cx="871.43" cy="201.12" r="7.58"/>
</g>
<g>
	<circle class="st34" cx="664.81" cy="132.64" r="11.69"/>
	<circle class="st35" cx="664.81" cy="132.64" r="8.72"/>
</g>
<g>
	<path class="st37" d="M778.39,425.76c8.76,0.83,17.5,1.77,26.24,2.74c8.74,1.01,17.47,2.07,26.19,3.2
		c17.45,2.26,34.86,4.79,52.22,7.61c17.35,2.91,34.69,5.94,51.88,9.69c17.19,3.73,34.32,7.87,51.05,13.33l-12.68-3.62
		c-4.24-1.16-8.53-2.14-12.79-3.22c-4.25-1.12-8.56-2-12.84-2.98l-6.43-1.44c-2.15-0.47-4.31-0.88-6.46-1.32
		c-17.21-3.59-34.53-6.63-51.89-9.46c-17.34-2.9-34.75-5.42-52.16-7.84c-8.71-1.22-17.43-2.37-26.15-3.48
		C795.85,427.85,787.12,426.76,778.39,425.76z"/>
</g>
<g>
	<defs>
		<path id="SVGID_16_" d="M684.48,70.98l70.21-8.63c0,0,60.83-1.13,63.66,1.71c2.83,2.83,37.7,16.3,44.5,38.62
			s9.07,42.31,14.74,56.98c5.67,14.67,4.54,16.81,6.52,29.77c1.98,12.96-12.76,43.29-16.44,48.68
			c-3.69,5.39-65.48,33.45-65.48,33.45l-65.8,6.95l-17.61-9.79l1.32-21.48c0,0,2.49-30.32-4.05-47.5s-18.25-49.15-37.58-66.13
			l-25.68-22.2L684.48,70.98z"/>
	</defs>
	<clipPath id="SVGID_17_">
		<use xlink:href="#SVGID_16_"  style="overflow:visible;"/>
	</clipPath>
	<g class="st38">
		<g>
			
				<radialGradient id="SVGID_18_" cx="791.6273" cy="287.665" r="46.4418" gradientTransform="matrix(0.8615 0.1106 -0.2414 1.8797 153.3928 -459.4094)" gradientUnits="userSpaceOnUse">
				<stop  offset="0" style="stop-color:#FFFFFF"/>
				<stop  offset="7.380247e-03" style="stop-color:#F6F6F6"/>
				<stop  offset="0.0477" style="stop-color:#C8C8C8"/>
				<stop  offset="0.0931" style="stop-color:#9D9D9D"/>
				<stop  offset="0.1419" style="stop-color:#777777"/>
				<stop  offset="0.195" style="stop-color:#575757"/>
				<stop  offset="0.2537" style="stop-color:#3B3B3B"/>
				<stop  offset="0.32" style="stop-color:#252525"/>
				<stop  offset="0.3974" style="stop-color:#141414"/>
				<stop  offset="0.4931" style="stop-color:#090909"/>
				<stop  offset="0.6274" style="stop-color:#020202"/>
				<stop  offset="1" style="stop-color:#000000"/>
			</radialGradient>
			<path class="st39" d="M805.95,174.01c-6.19,48.21-29.12,84.99-51.22,82.16c-22.1-2.84-34.99-44.22-28.8-92.43
				c6.19-48.21,29.12-84.99,51.22-82.16S812.14,125.8,805.95,174.01z"/>
			
				<radialGradient id="SVGID_19_" cx="536.8956" cy="279.8204" r="46.4417" gradientTransform="matrix(0.4912 0.3963 -1.3321 1.6512 874.963 -505.9427)" gradientUnits="userSpaceOnUse">
				<stop  offset="0" style="stop-color:#FFFFFF"/>
				<stop  offset="0.0275" style="stop-color:#E9E9E9"/>
				<stop  offset="0.0959" style="stop-color:#B9B9B9"/>
				<stop  offset="0.17" style="stop-color:#8D8D8D"/>
				<stop  offset="0.2479" style="stop-color:#676767"/>
				<stop  offset="0.3308" style="stop-color:#474747"/>
				<stop  offset="0.4201" style="stop-color:#2D2D2D"/>
				<stop  offset="0.5182" style="stop-color:#191919"/>
				<stop  offset="0.6297" style="stop-color:#0B0B0B"/>
				<stop  offset="0.7663" style="stop-color:#020202"/>
				<stop  offset="1" style="stop-color:#000000"/>
			</radialGradient>
			<path class="st40" d="M788.75,187.27c-34.17,42.35-72.08,68.44-84.68,58.28c-12.6-10.16,4.89-52.74,39.05-95.09
				c34.17-42.35,72.08-68.44,84.68-58.28C840.4,102.35,822.92,144.92,788.75,187.27z"/>
			
				<radialGradient id="SVGID_20_" cx="748.3184" cy="267.2201" r="46.4422" gradientTransform="matrix(0.2075 0.1214 -0.9869 1.6876 874.3809 -372.938)" gradientUnits="userSpaceOnUse">
				<stop  offset="0" style="stop-color:#FFFFFF"/>
				<stop  offset="0.0404" style="stop-color:#DBDBDB"/>
				<stop  offset="0.0994" style="stop-color:#AEAEAE"/>
				<stop  offset="0.164" style="stop-color:#848484"/>
				<stop  offset="0.233" style="stop-color:#606060"/>
				<stop  offset="0.3073" style="stop-color:#424242"/>
				<stop  offset="0.3887" style="stop-color:#2A2A2A"/>
				<stop  offset="0.4801" style="stop-color:#171717"/>
				<stop  offset="0.5873" style="stop-color:#0A0A0A"/>
				<stop  offset="0.7249" style="stop-color:#020202"/>
				<stop  offset="1" style="stop-color:#000000"/>
			</radialGradient>
			<path class="st41" d="M775.58,174.5c-25.31,43.29-50.15,75.85-55.47,72.74c-5.32-3.11,10.88-40.73,36.2-84.01
				c25.31-43.29,50.15-75.85,55.47-72.74C817.1,93.61,800.89,131.22,775.58,174.5z"/>
			
				<radialGradient id="SVGID_21_" cx="6935.7896" cy="65.6306" r="190.7374" gradientTransform="matrix(0.0381 -2.500000e-03 0.0452 0.6896 498.7173 140.9491)" gradientUnits="userSpaceOnUse">
				<stop  offset="0" style="stop-color:#FFFFFF"/>
				<stop  offset="7.380247e-03" style="stop-color:#F6F6F6"/>
				<stop  offset="0.0477" style="stop-color:#C8C8C8"/>
				<stop  offset="0.0931" style="stop-color:#9D9D9D"/>
				<stop  offset="0.1419" style="stop-color:#777777"/>
				<stop  offset="0.195" style="stop-color:#575757"/>
				<stop  offset="0.2537" style="stop-color:#3B3B3B"/>
				<stop  offset="0.32" style="stop-color:#252525"/>
				<stop  offset="0.3974" style="stop-color:#141414"/>
				<stop  offset="0.4931" style="stop-color:#090909"/>
				<stop  offset="0.6274" style="stop-color:#020202"/>
				<stop  offset="1" style="stop-color:#000000"/>
			</radialGradient>
			<path class="st42" d="M773.21,168.39c4.76,72.63,5.37,131.72,1.36,131.99c-4.01,0.26-11.13-58.4-15.89-131.03
				c-4.76-72.63-5.37-131.72-1.36-131.99C761.32,37.1,768.44,95.76,773.21,168.39z"/>
			
				<radialGradient id="SVGID_22_" cx="3172.8074" cy="287.1866" r="46.4505" gradientTransform="matrix(0.072 9.300000e-03 -0.2414 1.8797 606.8221 -400.4633)" gradientUnits="userSpaceOnUse">
				<stop  offset="0" style="stop-color:#FFFFFF"/>
				<stop  offset="2.206147e-03" style="stop-color:#FDFDFD"/>
				<stop  offset="0.0481" style="stop-color:#CDCDCD"/>
				<stop  offset="0.097" style="stop-color:#A3A3A3"/>
				<stop  offset="0.1515" style="stop-color:#7B7B7B"/>
				<stop  offset="0.2104" style="stop-color:#5A5A5A"/>
				<stop  offset="0.2748" style="stop-color:#3E3E3E"/>
				<stop  offset="0.3468" style="stop-color:#272727"/>
				<stop  offset="0.4297" style="stop-color:#151515"/>
				<stop  offset="0.5302" style="stop-color:#090909"/>
				<stop  offset="0.6667" style="stop-color:#020202"/>
				<stop  offset="1" style="stop-color:#000000"/>
			</radialGradient>
			<path class="st43" d="M769.28,169.3c-6.19,48.21-12.71,87.1-14.56,86.87c-1.85-0.24,1.67-39.51,7.87-87.72
				c6.19-48.21,12.71-87.1,14.56-86.87C779,81.81,775.47,121.09,769.28,169.3z"/>
			
				<radialGradient id="SVGID_23_" cx="5237.9932" cy="385.7275" r="46.44" gradientTransform="matrix(0.0619 -0.038 0.9919 1.6148 59.1025 -254.9606)" gradientUnits="userSpaceOnUse">
				<stop  offset="0" style="stop-color:#FFFFFF"/>
				<stop  offset="0.0151" style="stop-color:#F4F4F4"/>
				<stop  offset="0.0902" style="stop-color:#C1C1C1"/>
				<stop  offset="0.1708" style="stop-color:#939393"/>
				<stop  offset="0.255" style="stop-color:#6C6C6C"/>
				<stop  offset="0.3437" style="stop-color:#4A4A4A"/>
				<stop  offset="0.4382" style="stop-color:#2F2F2F"/>
				<stop  offset="0.5405" style="stop-color:#1A1A1A"/>
				<stop  offset="0.6545" style="stop-color:#0B0B0B"/>
				<stop  offset="0.7896" style="stop-color:#030303"/>
				<stop  offset="1" style="stop-color:#000000"/>
			</radialGradient>
			<path class="st44" d="M768.81,167.1c25.44,41.42,44.78,75.79,43.19,76.76c-1.59,0.98-23.5-31.81-48.94-73.23
				c-25.44-41.42-44.78-75.79-43.19-76.76C721.46,92.9,743.37,125.68,768.81,167.1z"/>
			
				<radialGradient id="SVGID_24_" cx="2607.1943" cy="228.5536" r="46.4552" gradientTransform="matrix(0.0466 0.0189 -0.5878 1.4461 778.7859 -210.9189)" gradientUnits="userSpaceOnUse">
				<stop  offset="0" style="stop-color:#FFFFFF"/>
				<stop  offset="5.636752e-03" style="stop-color:#F8F8F8"/>
				<stop  offset="0.0474" style="stop-color:#CACACA"/>
				<stop  offset="0.0942" style="stop-color:#9E9E9E"/>
				<stop  offset="0.1445" style="stop-color:#787878"/>
				<stop  offset="0.1992" style="stop-color:#585858"/>
				<stop  offset="0.2595" style="stop-color:#3C3C3C"/>
				<stop  offset="0.3273" style="stop-color:#262626"/>
				<stop  offset="0.4063" style="stop-color:#151515"/>
				<stop  offset="0.5033" style="stop-color:#090909"/>
				<stop  offset="0.6383" style="stop-color:#020202"/>
				<stop  offset="1" style="stop-color:#000000"/>
			</radialGradient>
			<path class="st45" d="M768.1,169.75c-15.08,37.09-28.27,66.76-29.46,66.28c-1.2-0.49,10.06-30.95,25.13-68.04
				c15.08-37.09,28.27-66.76,29.46-66.28C794.43,102.2,783.18,132.66,768.1,169.75z"/>
			
				<radialGradient id="SVGID_25_" cx="122.6501" cy="284.2289" r="46.4406" gradientTransform="matrix(0.0596 0.0578 -1.513 1.5612 1188.6658 -281.9589)" gradientUnits="userSpaceOnUse">
				<stop  offset="0" style="stop-color:#FFFFFF"/>
				<stop  offset="0.0115" style="stop-color:#F7F7F7"/>
				<stop  offset="0.0884" style="stop-color:#C4C4C4"/>
				<stop  offset="0.1707" style="stop-color:#959595"/>
				<stop  offset="0.2565" style="stop-color:#6D6D6D"/>
				<stop  offset="0.3466" style="stop-color:#4B4B4B"/>
				<stop  offset="0.4423" style="stop-color:#303030"/>
				<stop  offset="0.5457" style="stop-color:#1A1A1A"/>
				<stop  offset="0.6602" style="stop-color:#0C0C0C"/>
				<stop  offset="0.795" style="stop-color:#030303"/>
				<stop  offset="1" style="stop-color:#000000"/>
			</radialGradient>
			<path class="st46" d="M768.71,171.55c-38.81,40.04-71.5,71.3-73.03,69.82c-1.53-1.48,28.69-35.14,67.49-75.19
				c38.81-40.04,71.5-71.3,73.03-69.82C837.73,97.85,807.51,131.51,768.71,171.55z"/>
			
				<radialGradient id="SVGID_26_" cx="-882.3149" cy="303.4054" r="46.4477" gradientTransform="matrix(0.0402 0.0568 -1.9334 1.3684 1388.0105 -196.196)" gradientUnits="userSpaceOnUse">
				<stop  offset="0" style="stop-color:#FFFFFF"/>
				<stop  offset="0.0275" style="stop-color:#E9E9E9"/>
				<stop  offset="0.0959" style="stop-color:#B9B9B9"/>
				<stop  offset="0.17" style="stop-color:#8D8D8D"/>
				<stop  offset="0.2479" style="stop-color:#676767"/>
				<stop  offset="0.3308" style="stop-color:#474747"/>
				<stop  offset="0.4201" style="stop-color:#2D2D2D"/>
				<stop  offset="0.5182" style="stop-color:#191919"/>
				<stop  offset="0.6297" style="stop-color:#0B0B0B"/>
				<stop  offset="0.7663" style="stop-color:#020202"/>
				<stop  offset="1" style="stop-color:#000000"/>
			</radialGradient>
			<path class="st47" d="M767.8,171.51c-49.59,35.1-90.63,62.37-91.66,60.91c-1.03-1.46,38.33-31.09,87.92-66.19
				c49.59-35.1,90.63-62.37,91.66-60.91C856.76,106.77,817.4,136.41,767.8,171.51z"/>
			
				<radialGradient id="SVGID_27_" cx="-882.3149" cy="303.4054" r="46.4477" gradientTransform="matrix(0.0402 0.0568 -1.9334 1.3684 1388.0105 -196.196)" gradientUnits="userSpaceOnUse">
				<stop  offset="0" style="stop-color:#FFFFFF"/>
				<stop  offset="0.0275" style="stop-color:#E9E9E9"/>
				<stop  offset="0.0959" style="stop-color:#B9B9B9"/>
				<stop  offset="0.17" style="stop-color:#8D8D8D"/>
				<stop  offset="0.2479" style="stop-color:#676767"/>
				<stop  offset="0.3308" style="stop-color:#474747"/>
				<stop  offset="0.4201" style="stop-color:#2D2D2D"/>
				<stop  offset="0.5182" style="stop-color:#191919"/>
				<stop  offset="0.6297" style="stop-color:#0B0B0B"/>
				<stop  offset="0.7663" style="stop-color:#020202"/>
				<stop  offset="1" style="stop-color:#000000"/>
			</radialGradient>
			<path class="st48" d="M767.8,171.51c-49.59,35.1-90.63,62.37-91.66,60.91c-1.03-1.46,38.33-31.09,87.92-66.19
				c49.59-35.1,90.63-62.37,91.66-60.91C856.76,106.77,817.4,136.41,767.8,171.51z"/>
			
				<radialGradient id="SVGID_28_" cx="-2141.8962" cy="276.7807" r="46.4274" gradientTransform="matrix(0.0223 0.0715 -1.6535 0.5152 1271.3585 179.4166)" gradientUnits="userSpaceOnUse">
				<stop  offset="0" style="stop-color:#FFFFFF"/>
				<stop  offset="0.078" style="stop-color:#CECECE"/>
				<stop  offset="0.167" style="stop-color:#9E9E9E"/>
				<stop  offset="0.2612" style="stop-color:#747474"/>
				<stop  offset="0.3591" style="stop-color:#505050"/>
				<stop  offset="0.4614" style="stop-color:#333333"/>
				<stop  offset="0.5698" style="stop-color:#1C1C1C"/>
				<stop  offset="0.6871" style="stop-color:#0C0C0C"/>
				<stop  offset="0.8196" style="stop-color:#030303"/>
				<stop  offset="1" style="stop-color:#000000"/>
			</radialGradient>
			<path class="st49" d="M766.97,172.19c-42.41,13.21-77.25,22.44-77.82,20.61c-0.57-1.83,33.35-14.03,75.76-27.25
				c42.41-13.21,77.25-22.44,77.82-20.61C843.3,146.77,809.38,158.97,766.97,172.19z"/>
			
				<radialGradient id="SVGID_29_" cx="-1393.2797" cy="274.1144" r="46.435" gradientTransform="matrix(0.0346 0.0664 -1.6674 0.8685 1271.2032 23.3139)" gradientUnits="userSpaceOnUse">
				<stop  offset="0" style="stop-color:#FFFFFF"/>
				<stop  offset="0.078" style="stop-color:#CECECE"/>
				<stop  offset="0.167" style="stop-color:#9E9E9E"/>
				<stop  offset="0.2612" style="stop-color:#747474"/>
				<stop  offset="0.3591" style="stop-color:#505050"/>
				<stop  offset="0.4614" style="stop-color:#333333"/>
				<stop  offset="0.5698" style="stop-color:#1C1C1C"/>
				<stop  offset="0.6871" style="stop-color:#0C0C0C"/>
				<stop  offset="0.8196" style="stop-color:#030303"/>
				<stop  offset="1" style="stop-color:#000000"/>
			</radialGradient>
			<path class="st50" d="M767.54,171.95c-42.77,22.28-78.16,38.95-79.04,37.25c-0.89-1.7,33.06-21.14,75.83-43.42
				c42.77-22.28,78.16-38.95,79.04-37.25C844.26,130.24,810.31,149.68,767.54,171.95z"/>
			
				<radialGradient id="SVGID_30_" cx="-4006.5503" cy="386.6828" r="46.4548" gradientTransform="matrix(-0.0253 0.0704 -1.769 -0.6367 1348.6135 697.1306)" gradientUnits="userSpaceOnUse">
				<stop  offset="0" style="stop-color:#FFFFFF"/>
				<stop  offset="0.078" style="stop-color:#CECECE"/>
				<stop  offset="0.167" style="stop-color:#9E9E9E"/>
				<stop  offset="0.2612" style="stop-color:#747474"/>
				<stop  offset="0.3591" style="stop-color:#505050"/>
				<stop  offset="0.4614" style="stop-color:#333333"/>
				<stop  offset="0.5698" style="stop-color:#1C1C1C"/>
				<stop  offset="0.6871" style="stop-color:#0C0C0C"/>
				<stop  offset="0.8196" style="stop-color:#030303"/>
				<stop  offset="1" style="stop-color:#000000"/>
			</radialGradient>
			<path class="st51" d="M764.76,172.14c-45.37-16.33-81.63-31.03-80.98-32.84c0.65-1.81,37.96,9.97,83.33,26.3
				s81.63,31.03,80.98,32.84C847.44,200.24,810.13,188.47,764.76,172.14z"/>
			
				<radialGradient id="SVGID_31_" cx="3012.5046" cy="380.0844" r="46.4407" gradientTransform="matrix(0.1181 -0.0557 0.9932 2.107 32.6608 -464.1728)" gradientUnits="userSpaceOnUse">
				<stop  offset="0" style="stop-color:#FFFFFF"/>
				<stop  offset="0.0347" style="stop-color:#E2E2E2"/>
				<stop  offset="0.0984" style="stop-color:#B3B3B3"/>
				<stop  offset="0.1677" style="stop-color:#888888"/>
				<stop  offset="0.2411" style="stop-color:#636363"/>
				<stop  offset="0.3197" style="stop-color:#454545"/>
				<stop  offset="0.4052" style="stop-color:#2B2B2B"/>
				<stop  offset="0.5" style="stop-color:#181818"/>
				<stop  offset="0.6096" style="stop-color:#0A0A0A"/>
				<stop  offset="0.7468" style="stop-color:#020202"/>
				<stop  offset="1" style="stop-color:#000000"/>
			</radialGradient>
			<path class="st52" d="M771.42,166.28c25.47,54.04,43.67,99.01,40.64,100.43c-3.03,1.43-26.14-41.22-51.61-95.26
				c-25.47-54.04-43.67-99.01-40.64-100.43C722.84,69.59,745.95,112.24,771.42,166.28z"/>
			
				<radialGradient id="SVGID_32_" cx="-2428.9275" cy="316.5745" r="46.4312" gradientTransform="matrix(0.0161 0.0759 -2.0574 0.4362 1456.3635 215.1343)" gradientUnits="userSpaceOnUse">
				<stop  offset="0" style="stop-color:#FFFFFF"/>
				<stop  offset="0.021" style="stop-color:#F4F4F4"/>
				<stop  offset="0.1357" style="stop-color:#BBBBBB"/>
				<stop  offset="0.2538" style="stop-color:#898989"/>
				<stop  offset="0.3728" style="stop-color:#5F5F5F"/>
				<stop  offset="0.4929" style="stop-color:#3D3D3D"/>
				<stop  offset="0.6144" style="stop-color:#222222"/>
				<stop  offset="0.738" style="stop-color:#0F0F0F"/>
				<stop  offset="0.8648" style="stop-color:#040404"/>
				<stop  offset="1" style="stop-color:#000000"/>
			</radialGradient>
			<path class="st53" d="M766.68,172.39c-52.77,11.19-95.88,18.68-96.29,16.73s42.03-12.59,94.8-23.78
				c52.77-11.19,95.88-18.68,96.29-16.73C861.9,150.56,819.45,161.2,766.68,172.39z"/>
			
				<radialGradient id="SVGID_33_" cx="-6109.8706" cy="281.1155" r="46.4567" gradientTransform="matrix(4.900000e-03 0.0371 -1.5335 0.2006 1226.9664 339.1529)" gradientUnits="userSpaceOnUse">
				<stop  offset="0" style="stop-color:#FFFFFF"/>
				<stop  offset="0.0187" style="stop-color:#F1F1F1"/>
				<stop  offset="0.092" style="stop-color:#BFBFBF"/>
				<stop  offset="0.1708" style="stop-color:#929292"/>
				<stop  offset="0.2533" style="stop-color:#6A6A6A"/>
				<stop  offset="0.3404" style="stop-color:#494949"/>
				<stop  offset="0.4335" style="stop-color:#2E2E2E"/>
				<stop  offset="0.5347" style="stop-color:#1A1A1A"/>
				<stop  offset="0.6481" style="stop-color:#0B0B0B"/>
				<stop  offset="0.7837" style="stop-color:#030303"/>
				<stop  offset="1" style="stop-color:#000000"/>
			</radialGradient>
			<path class="st54" d="M766.16,170.59c-39.33,5.14-71.32,8.54-71.44,7.59c-0.12-0.95,31.66-5.9,70.99-11.04
				c39.33-5.14,71.32-8.54,71.44-7.59C837.28,160.51,805.49,165.45,766.16,170.59z"/>
			
				<radialGradient id="SVGID_34_" cx="-1201.0033" cy="356.7927" r="46.4371" gradientTransform="matrix(-0.0117 0.1726 -2.2255 -0.1506 1545.9279 429.8946)" gradientUnits="userSpaceOnUse">
				<stop  offset="0" style="stop-color:#FFFFFF"/>
				<stop  offset="0.0419" style="stop-color:#D9D9D9"/>
				<stop  offset="0.0995" style="stop-color:#ACACAC"/>
				<stop  offset="0.1627" style="stop-color:#838383"/>
				<stop  offset="0.2303" style="stop-color:#5F5F5F"/>
				<stop  offset="0.3033" style="stop-color:#424242"/>
				<stop  offset="0.3835" style="stop-color:#292929"/>
				<stop  offset="0.4739" style="stop-color:#171717"/>
				<stop  offset="0.5802" style="stop-color:#0A0A0A"/>
				<stop  offset="0.7179" style="stop-color:#020202"/>
				<stop  offset="1" style="stop-color:#000000"/>
			</radialGradient>
			<path class="st55" d="M765.4,176.88c-57.08-3.86-103.11-10.58-102.81-15.01c0.3-4.43,46.82-4.88,103.9-1.02
				c57.08,3.86,103.11,10.58,102.81,15.01C868.99,180.29,822.48,180.75,765.4,176.88z"/>
			
				<radialGradient id="SVGID_35_" cx="-5373.2798" cy="367.233" r="46.4175" gradientTransform="matrix(-9.700000e-03 0.0528 -2.0513 -0.3757 1467.1215 590.5471)" gradientUnits="userSpaceOnUse">
				<stop  offset="0" style="stop-color:#FFFFFF"/>
				<stop  offset="0.0246" style="stop-color:#ECECEC"/>
				<stop  offset="0.0947" style="stop-color:#BBBBBB"/>
				<stop  offset="0.1703" style="stop-color:#8E8E8E"/>
				<stop  offset="0.2498" style="stop-color:#686868"/>
				<stop  offset="0.3341" style="stop-color:#484848"/>
				<stop  offset="0.4247" style="stop-color:#2D2D2D"/>
				<stop  offset="0.5239" style="stop-color:#191919"/>
				<stop  offset="0.6361" style="stop-color:#0B0B0B"/>
				<stop  offset="0.7724" style="stop-color:#030303"/>
				<stop  offset="1" style="stop-color:#000000"/>
			</radialGradient>
			<path class="st56" d="M765.49,171.32c-52.61-9.64-95.06-18.54-94.82-19.9c0.25-1.35,43.1,5.36,95.71,15s95.06,18.54,94.82,19.9
				C860.96,187.67,818.1,180.95,765.49,171.32z"/>
			
				<radialGradient id="SVGID_36_" cx="137.2693" cy="409.6496" r="46.4415" gradientTransform="matrix(-0.3819 0.7911 -1.844 -0.8901 1573.7544 424.9039)" gradientUnits="userSpaceOnUse">
				<stop  offset="0" style="stop-color:#FFFFFF"/>
				<stop  offset="0.078" style="stop-color:#CECECE"/>
				<stop  offset="0.167" style="stop-color:#9E9E9E"/>
				<stop  offset="0.2612" style="stop-color:#747474"/>
				<stop  offset="0.3591" style="stop-color:#505050"/>
				<stop  offset="0.4614" style="stop-color:#333333"/>
				<stop  offset="0.5698" style="stop-color:#1C1C1C"/>
				<stop  offset="0.6871" style="stop-color:#0C0C0C"/>
				<stop  offset="0.8196" style="stop-color:#030303"/>
				<stop  offset="1" style="stop-color:#000000"/>
			</radialGradient>
			<path class="st57" d="M748.2,205.61c-47.3-22.83-77.7-57.78-67.9-78.08s56.08-18.23,103.37,4.59
				c47.3,22.83,77.7,57.78,67.9,78.08C841.78,230.49,795.5,228.44,748.2,205.61z"/>
			
				<radialGradient id="SVGID_37_" cx="-8065.5" cy="430.8705" r="46.4295" gradientTransform="matrix(-0.0219 0.0354 -2.025 -1.253 1461.8158 994.268)" gradientUnits="userSpaceOnUse">
				<stop  offset="0" style="stop-color:#FFFFFF"/>
				<stop  offset="0.0419" style="stop-color:#D9D9D9"/>
				<stop  offset="0.0995" style="stop-color:#ACACAC"/>
				<stop  offset="0.1627" style="stop-color:#838383"/>
				<stop  offset="0.2303" style="stop-color:#5F5F5F"/>
				<stop  offset="0.3033" style="stop-color:#424242"/>
				<stop  offset="0.3835" style="stop-color:#292929"/>
				<stop  offset="0.4739" style="stop-color:#171717"/>
				<stop  offset="0.5802" style="stop-color:#0A0A0A"/>
				<stop  offset="0.7179" style="stop-color:#020202"/>
				<stop  offset="1" style="stop-color:#000000"/>
			</radialGradient>
			<path class="st58" d="M764.92,170.51c-51.94-32.14-93.59-58.92-93.03-59.83c0.56-0.91,43.12,24.41,95.06,56.55
				c51.94,32.14,93.59,58.92,93.03,59.83C859.42,227.97,816.86,202.65,764.92,170.51z"/>
			
				<radialGradient id="SVGID_38_" cx="-8121.8516" cy="459.3104" r="46.4754" gradientTransform="matrix(-0.0281 0.0306 -1.7537 -1.611 1343.2061 1157.3462)" gradientUnits="userSpaceOnUse">
				<stop  offset="0" style="stop-color:#FFFFFF"/>
				<stop  offset="0.0915" style="stop-color:#D5D5D5"/>
				<stop  offset="0.2279" style="stop-color:#9D9D9D"/>
				<stop  offset="0.3651" style="stop-color:#6D6D6D"/>
				<stop  offset="0.5003" style="stop-color:#464646"/>
				<stop  offset="0.6327" style="stop-color:#272727"/>
				<stop  offset="0.7618" style="stop-color:#121212"/>
				<stop  offset="0.886" style="stop-color:#040404"/>
				<stop  offset="1" style="stop-color:#000000"/>
			</radialGradient>
			<path class="st59" d="M764.63,170.29c-44.98-41.32-80.86-75.45-80.14-76.24s37.77,32.07,82.75,73.39
				c44.98,41.32,80.86,75.45,80.14,76.24C846.66,244.47,809.61,211.61,764.63,170.29z"/>
			
				<radialGradient id="SVGID_39_" cx="5385.9883" cy="491.6477" r="46.4511" gradientTransform="matrix(0.0577 -0.0438 -1.2469 -1.6427 1068.2013 1212.4044)" gradientUnits="userSpaceOnUse">
				<stop  offset="0" style="stop-color:#FFFFFF"/>
				<stop  offset="0.0445" style="stop-color:#D5D5D5"/>
				<stop  offset="0.0991" style="stop-color:#A9A9A9"/>
				<stop  offset="0.1594" style="stop-color:#808080"/>
				<stop  offset="0.224" style="stop-color:#5D5D5D"/>
				<stop  offset="0.294" style="stop-color:#404040"/>
				<stop  offset="0.3715" style="stop-color:#292929"/>
				<stop  offset="0.4594" style="stop-color:#161616"/>
				<stop  offset="0.564" style="stop-color:#0A0A0A"/>
				<stop  offset="0.7015" style="stop-color:#020202"/>
				<stop  offset="1" style="stop-color:#000000"/>
			</radialGradient>
			<path class="st60" d="M768.62,166.83c-31.98-42.13-59.11-75.38-60.59-74.25c-1.48,1.12,23.24,36.19,55.23,78.32
				c31.98,42.13,59.11,75.38,60.59,74.25C825.32,244.03,800.6,208.97,768.62,166.83z"/>
			
				<radialGradient id="SVGID_40_" cx="-2792.8831" cy="496.5017" r="46.4343" gradientTransform="matrix(-0.0845 0.0613 -1.186 -1.6354 1118.7898 1152.0511)" gradientUnits="userSpaceOnUse">
				<stop  offset="0" style="stop-color:#FFFFFF"/>
				<stop  offset="0.042" style="stop-color:#D9D9D9"/>
				<stop  offset="0.0995" style="stop-color:#ACACAC"/>
				<stop  offset="0.1626" style="stop-color:#838383"/>
				<stop  offset="0.2301" style="stop-color:#5F5F5F"/>
				<stop  offset="0.303" style="stop-color:#424242"/>
				<stop  offset="0.3831" style="stop-color:#292929"/>
				<stop  offset="0.4734" style="stop-color:#171717"/>
				<stop  offset="0.5797" style="stop-color:#0A0A0A"/>
				<stop  offset="0.7173" style="stop-color:#020202"/>
				<stop  offset="1" style="stop-color:#000000"/>
			</radialGradient>
			<path class="st61" d="M762.01,171.71c-30.42-41.95-53.32-77.22-51.16-78.8c2.17-1.57,28.58,31.16,59,73.11
				c30.42,41.95,53.32,77.22,51.16,78.8C818.85,246.39,792.43,213.66,762.01,171.71z"/>
			
				<radialGradient id="SVGID_41_" cx="-2192.0256" cy="633.5558" r="46.444" gradientTransform="matrix(-0.0512 -0.0138 0.4673 -1.7316 357.6451 1235.6837)" gradientUnits="userSpaceOnUse">
				<stop  offset="0" style="stop-color:#CCCCCC"/>
				<stop  offset="0.1256" style="stop-color:#9F9F9F"/>
				<stop  offset="0.2812" style="stop-color:#6F6F6F"/>
				<stop  offset="0.436" style="stop-color:#474747"/>
				<stop  offset="0.5872" style="stop-color:#282828"/>
				<stop  offset="0.7339" style="stop-color:#121212"/>
				<stop  offset="0.8739" style="stop-color:#050505"/>
				<stop  offset="1" style="stop-color:#000000"/>
			</radialGradient>
			<path class="st62" d="M763.56,168.23c11.99-44.41,22.77-80.13,24.08-79.78c1.31,0.35-7.34,36.65-19.33,81.06
				c-11.99,44.41-22.77,80.13-24.08,79.78C742.92,248.93,751.57,212.64,763.56,168.23z"/>
			
				<radialGradient id="SVGID_42_" cx="-4097.1118" cy="571.5613" r="46.4492" gradientTransform="matrix(-0.0575 0.0111 -0.3615 -1.8781 736.9729 1287.7958)" gradientUnits="userSpaceOnUse">
				<stop  offset="0" style="stop-color:#FFFFFF"/>
				<stop  offset="0.0678" style="stop-color:#D6D6D6"/>
				<stop  offset="0.1625" style="stop-color:#A5A5A5"/>
				<stop  offset="0.2621" style="stop-color:#797979"/>
				<stop  offset="0.3648" style="stop-color:#535353"/>
				<stop  offset="0.4712" style="stop-color:#353535"/>
				<stop  offset="0.5828" style="stop-color:#1E1E1E"/>
				<stop  offset="0.7015" style="stop-color:#0D0D0D"/>
				<stop  offset="0.8326" style="stop-color:#030303"/>
				<stop  offset="1" style="stop-color:#000000"/>
			</radialGradient>
			<path class="st63" d="M763.27,169.38c-9.27-48.17-15.59-87.45-14.12-87.74s10.19,38.54,19.46,86.71
				c9.27,48.17,15.59,87.45,14.12,87.74C781.25,256.37,772.54,217.55,763.27,169.38z"/>
			
				<radialGradient id="SVGID_43_" cx="-32.6891" cy="636.7597" r="46.4509" gradientTransform="matrix(-0.0491 -0.0319 1.0412 -1.6044 101.3381 1189.443)" gradientUnits="userSpaceOnUse">
				<stop  offset="0" style="stop-color:#FFFFFF"/>
				<stop  offset="0.0678" style="stop-color:#D6D6D6"/>
				<stop  offset="0.1625" style="stop-color:#A5A5A5"/>
				<stop  offset="0.2621" style="stop-color:#797979"/>
				<stop  offset="0.3648" style="stop-color:#535353"/>
				<stop  offset="0.4712" style="stop-color:#353535"/>
				<stop  offset="0.5828" style="stop-color:#1E1E1E"/>
				<stop  offset="0.7015" style="stop-color:#0D0D0D"/>
				<stop  offset="0.8326" style="stop-color:#030303"/>
				<stop  offset="1" style="stop-color:#000000"/>
			</radialGradient>
			<path class="st64" d="M763.66,167.39c26.7-41.15,49.37-73.85,50.63-73.03c1.26,0.82-19.37,34.84-46.07,75.99
				c-26.7,41.15-49.37,73.85-50.63,73.03C716.32,242.56,736.95,208.54,763.66,167.39z"/>
		</g>
		<radialGradient id="SVGID_44_" cx="765.9374" cy="168.8685" r="38.646" gradientUnits="userSpaceOnUse">
			<stop  offset="0" style="stop-color:#FFFFFF"/>
			<stop  offset="0.1061" style="stop-color:#CDCDCD"/>
			<stop  offset="0.2366" style="stop-color:#989898"/>
			<stop  offset="0.3687" style="stop-color:#696969"/>
			<stop  offset="0.4995" style="stop-color:#434343"/>
			<stop  offset="0.6289" style="stop-color:#262626"/>
			<stop  offset="0.7564" style="stop-color:#111111"/>
			<stop  offset="0.8811" style="stop-color:#040404"/>
			<stop  offset="1" style="stop-color:#000000"/>
		</radialGradient>
		<circle class="st65" cx="765.94" cy="168.87" r="38.65"/>
	</g>
</g>
<path class="st66" d="M147.11,513.64c0,0,247.75-47.5,285.54-57.57c0,0,188.98-45.04,250.2-73.95c0,0,98.65-34.58,139.46-64.63
	c0,0,103.75-49.89,86.74-156.47c0,0-19.84-102.61-133.23-113.39c0,0-80.5-11.34-134.36,45.35l-2.06-2.55
	c0,0,40.8-58.68,144.35-52.63c0,0,100.54,4.16,133.42,101.29l7.18,27.21c0,0,6.43,21.17,14.74,31.37
	c8.31,10.2,20.79,26.08,20.79,26.08s9.07,8.69-5.29,18.14c-14.36,9.45-10.54,10.46-8.62,21.66l0.92,7.87c0,0-1.28,3.12-5.67,5.24
	c0,0-4.68,3.12-2.13,8.5c2.55,5.39,4.96,9.5,0.28,15.45c-4.68,5.95-6.09,8.08-2.13,16.72c3.97,8.65,10.06,17.72,2.83,30.47
	c0,0-7.94,8.5-17.86,9.5s-16.87-2.13-41.67,8.79c-24.8,10.91-50.32,24.8-52.3,25.51c-1.98,0.71-39.54,16.44-46.2,17.72
	c-6.66,1.28-46.35,14.88-65.76,17.01c-19.42,2.13-86.87,2.24-110.15,7.83c0,0-63.88,5.32-83.35,11.13c0,0-51.48,11.59-61.4,14.03
	c-9.92,2.44-61.35,16.2-75.59,18.37c-14.25,2.17-101.51,15.3-111.13,16.75C265.06,495.89,147.11,513.64,147.11,513.64z"/>
<linearGradient id="SVGID_45_" gradientUnits="userSpaceOnUse" x1="516.1811" y1="309.0236" x2="962.7234" y2="309.0236">
	<stop  offset="0.678" style="stop-color:#002C7E"/>
	<stop  offset="1" style="stop-color:#37CBFD"/>
</linearGradient>
<path class="st67" d="M959.9,223.75c0,0-12.47-15.87-20.79-26.08c-5.79-7.1-10.66-19.51-13.09-26.4c-0.21,1.5-0.26,2.71-0.1,3.49
	c1.28,6.09,4.68,16.72,5.95,31.89c1.28,15.17-1.84,30.9-1.84,30.9c-23.81,92.41-77.48,104.5-99.4,121.13
	c-21.92,16.63-133.04,44.98-145.89,48.76c-11.94,3.51-149.2,32.81-168.57,36.93v2.41c4.07-0.92,6.63-1.49,6.63-1.49
	c19.48-5.8,83.35-11.13,83.35-11.13c23.27-5.59,90.73-5.7,110.15-7.83c19.42-2.13,59.1-15.73,65.76-17.01s44.22-17.01,46.2-17.72
	c1.98-0.71,27.5-14.6,52.3-25.51c24.8-10.91,31.75-7.8,41.67-8.79s17.86-9.5,17.86-9.5c7.23-12.76,1.13-21.83-2.83-30.47
	s-2.55-10.77,2.13-16.72c4.68-5.95,2.27-10.06-0.28-15.45c-2.55-5.39,2.13-8.5,2.13-8.5c4.39-2.13,5.67-5.24,5.67-5.24l-0.92-7.87
	c-1.91-11.2-5.74-12.21,8.62-21.66C968.97,232.44,959.9,223.75,959.9,223.75z"/>
<g>
	<circle class="st34" cx="764.35" cy="49.6" r="10.2"/>
	<circle class="st35" cx="764.35" cy="49.6" r="7.61"/>
</g>
</svg>
